<?xml version="1.0" encoding="utf-8"?>
<?xml-stylesheet type="text/xsl" href="rss1.xsl"?>
<rss version="2.0" xmlns:atom="http://www.w3.org/2005/Atom" xmlns:content="http://purl.org/rss/1.0/modules/content/" xmlns:dc="http://purl.org/dc/elements/1.1/" xmlns:media="http://search.yahoo.com/mrss/">
<channel>
 <title>Getty</title>
 <link>http://www.gettyimg.com/</link>
 <atom:link href="http://www.gettyimg.com/" rel="self" type="application/rss+xml" />

 
                <item>
                <title><![CDATA[【HD Live Performances】HDTV - Muse - Rock In Rio Lisboa 2018 1080i HDTV MP2 H.264]]></title>
                <link><![CDATA[https://sharemania.us/threads/muse-rock-in-rio-lisboa-2018-1080i-hdtv-mp2-h-264.243657/]]></link>
                <description><![CDATA[<article>
<blockquote class="messageText SelectQuoteContainer ugc baseHtml">
<img src="https://i.ibb.co/3fxbBFX/Rock-In-Rio-Lisboa-2018-Muse-1080i-HDTV-MP2-H-264-No-GRP-ts.png" class="bbCodeImage LbImage" alt="[​IMG]" data-url="https://i.ibb.co/3fxbBFX/Rock-In-Rio-Lisboa-2018-Muse-1080i-HDTV-MP2-H-264-No-GRP-ts.png" style=""><br>
<div class="ToggleTriggerAnchor bbCodeSpoilerContainer">
<button type="button" class="button bbCodeSpoilerButton ToggleTrigger Tooltip JsOnly" data-target="> .SpoilerTarget"><span>Spoiler: <span class="SpoilerTitle">MediaInfo</span></span></button>
<div class="SpoilerTarget bbCodeSpoilerText">
<div class="bbCodeBlock bbCodeCode">
<div class="type">Code:</div>
<pre>General
File size                                : 5.32 GiB
Duration                                 : 1 h 30 min
Overall bit rate mode                    : Variable
Overall bit rate                         : 8 428 kb/s
Frame rate                               : 25.000 FPS

Video
ID                                       : 6426 (0x191A)
Menu ID                                  : 1459 (0x5B3)
Format                                   : AVC
Format/Info                              : Advanced Video Codec
Format profile                           : Main@L4
Format settings                          : CABAC / 4 Ref Frames
Format settings, CABAC                   : Yes
Format settings, Reference frames        : 4 frames
Format settings, GOP                     : M=4, N=28
Codec ID                                 : 27
Duration                                 : 1 h 30 min
Bit rate                                 : 7 818 kb/s
Width                                    : 1 920 pixels
Height                                   : 1 080 pixels
Display aspect ratio                     : 16:9
Frame rate                               : 25.000 FPS
Standard                                 : Component
Color space                              : YUV
Chroma subsampling                       : 4:2:0
Bit depth                                : 8 bits
Scan type                                : Interlaced
Scan type, store method                  : Separated fields
Scan order                               : Top Field First
Bits/(Pixel*Frame)                       : 0.151
Stream size                              : 4.94 GiB (93%)
Color range                              : Limited
Color primaries                          : BT.709
Transfer characteristics                 : BT.709
Matrix coefficients                      : BT.709

Audio
ID                                       : 6427 (0x191B)
Menu ID                                  : 1459 (0x5B3)
Format                                   : MPEG Audio
Format version                           : Version 1
Format profile                           : Layer 2
Codec ID                                 : 4
Duration                                 : 1 h 30 min
Bit rate mode                            : Constant
Bit rate                                 : 192 kb/s
Channel(s)                               : 2 channels
Sampling rate                            : 48.0 kHz
Frame rate                               : 41.667 FPS (1152 SPF)
Compression mode                         : Lossy
Delay relative to video                  : 80 ms
Stream size                              : 124 MiB (2%)
Language                                 : Portuguese
</pre>
</div></div>
</div>
<div class="bbCodeBlock bbCodeVfcHH HiddenContent">
<div class="attribution type">Hidden Content:</div>
<blockquote>You must reply before you can see the hidden data contained here.</blockquote>
</div>
<div class="messageTextEndMarker">&nbsp;</div>
</blockquote>
</article>]]></description>
                <author><![CDATA[itunesboy]]></author>
                </item>

                
                <item>
                <title><![CDATA[【HD Live Performances】HDTV - Anitta - Rock In Rio Lisboa 2018 1080i HDTV DD5.1 H.264]]></title>
                <link><![CDATA[https://sharemania.us/threads/anitta-rock-in-rio-lisboa-2018-1080i-hdtv-dd5-1-h-264.243656/]]></link>
                <description><![CDATA[<article>
<blockquote class="messageText SelectQuoteContainer ugc baseHtml">
<img src="https://i.ibb.co/D1nvf7B/Rock-In-Rio-Lisboa-2018-Anitta-1080i-HDTV-DD5-1-H-264-No-GRP-ts.png" class="bbCodeImage LbImage" alt="[​IMG]" data-url="https://i.ibb.co/D1nvf7B/Rock-In-Rio-Lisboa-2018-Anitta-1080i-HDTV-DD5-1-H-264-No-GRP-ts.png" style=""><br>
<div class="ToggleTriggerAnchor bbCodeSpoilerContainer">
<button type="button" class="button bbCodeSpoilerButton ToggleTrigger Tooltip JsOnly" data-target="> .SpoilerTarget"><span>Spoiler: <span class="SpoilerTitle">MediaInfo</span></span></button>
<div class="SpoilerTarget bbCodeSpoilerText">
<div class="bbCodeBlock bbCodeCode">
<div class="type">Code:</div>
<pre>General
File size                                : 6.20 GiB
Duration                                 : 1 h 6 min
Overall bit rate mode                    : Variable
Overall bit rate                         : 13.4 Mb/s
Frame rate                               : 29.970 FPS

Video
ID                                       : 1328 (0x530)
Menu ID                                  : 1336 (0x538)
Format                                   : AVC
Format/Info                              : Advanced Video Codec
Format profile                           : High@L4
Format settings                          : CABAC / 4 Ref Frames
Format settings, CABAC                   : Yes
Format settings, Reference frames        : 4 frames
Codec ID                                 : 27
Duration                                 : 1 h 6 min
Bit rate                                 : 12.4 Mb/s
Width                                    : 1 920 pixels
Height                                   : 1 080 pixels
Display aspect ratio                     : 16:9
Frame rate                               : 29.970 (30000/1001) FPS
Color space                              : YUV
Chroma subsampling                       : 4:2:0
Bit depth                                : 8 bits
Scan type                                : MBAFF
Scan type, store method                  : Interleaved fields
Scan order                               : Top Field First
Bits/(Pixel*Frame)                       : 0.199
Stream size                              : 5.72 GiB (92%)

Audio
ID                                       : 1329 (0x531)
Menu ID                                  : 1336 (0x538)
Format                                   : AC-3
Format/Info                              : Audio Coding 3
Commercial name                          : Dolby Digital
Codec ID                                 : 129
Duration                                 : 1 h 6 min
Bit rate mode                            : Constant
Bit rate                                 : 384 kb/s
Channel(s)                               : 6 channels
Channel layout                           : L R C LFE Ls Rs
Sampling rate                            : 48.0 kHz
Frame rate                               : 31.250 FPS (1536 SPF)
Compression mode                         : Lossy
Stream size                              : 181 MiB (3%)
Language                                 : English
Service kind                             : Complete Main
Dialog Normalization                     : -23 dB
compr                                    : -0.28 dB
cmixlev                                  : -3.0 dB
surmixlev                                : -3 dB
mixlevel                                 : 285 dB
roomtyp                                  : 3
ltrtcmixlev                              : -3.0 dB
ltrtsurmixlev                            : -3.0 dB
lorocmixlev                              : -3.0 dB
lorosurmixlev                            : -4.5 dB
dialnorm_Average                         : -23 dB
dialnorm_Minimum                         : -23 dB
dialnorm_Maximum                         : -23 dB
</pre>
</div></div>
</div>
<div class="bbCodeBlock bbCodeVfcHH HiddenContent">
<div class="attribution type">Hidden Content:</div>
<blockquote>You must reply before you can see the hidden data contained here.</blockquote>
</div>
<div class="messageTextEndMarker">&nbsp;</div>
</blockquote>
</article>]]></description>
                <author><![CDATA[itunesboy]]></author>
                </item>

                
                <item>
                <title><![CDATA[【HD Live Performances】FEED - Fergie - Rock In Rio Lisboa 2016 1080i HDTV FEED MP2 H.264]]></title>
                <link><![CDATA[https://sharemania.us/threads/fergie-rock-in-rio-lisboa-2016-1080i-hdtv-feed-mp2-h-264.243653/]]></link>
                <description><![CDATA[<article>
<blockquote class="messageText SelectQuoteContainer ugc baseHtml">
<img src="https://i.ibb.co/dc7H89K/Rock-In-Rio-Lisboa-2016-Fergie-1080i-HDTV-FEED-MP2-H-264-No-GRP-ts.png" class="bbCodeImage LbImage" alt="[​IMG]" data-url="https://i.ibb.co/dc7H89K/Rock-In-Rio-Lisboa-2016-Fergie-1080i-HDTV-FEED-MP2-H-264-No-GRP-ts.png" style=""><br>
<div class="ToggleTriggerAnchor bbCodeSpoilerContainer">
<button type="button" class="button bbCodeSpoilerButton ToggleTrigger Tooltip JsOnly" data-target="> .SpoilerTarget"><span>Spoiler: <span class="SpoilerTitle">MediaInfo</span></span></button>
<div class="SpoilerTarget bbCodeSpoilerText">
<div class="bbCodeBlock bbCodeCode">
<div class="type">Code:</div>
<pre>General
File size                                : 6.47 GiB
Duration                                 : 1 h 0 min
Overall bit rate mode                    : Variable
Overall bit rate                         : 15.4 Mb/s
Frame rate                               : 25.000 FPS

Video
ID                                       : 512 (0x200)
Menu ID                                  : 1 (0x1)
Format                                   : AVC
Format/Info                              : Advanced Video Codec
Format profile                           : Main@L4
Format settings                          : CABAC / 4 Ref Frames
Format settings, CABAC                   : Yes
Format settings, Reference frames        : 4 frames
Format settings, GOP                     : M=3, N=15
Format settings, Slice count             : 6 slices per frame
Codec ID                                 : 27
Duration                                 : 1 h 0 min
Bit rate mode                            : Variable
Bit rate                                 : 14.2 Mb/s
Maximum bit rate                         : 14.5 Mb/s
Width                                    : 1 920 pixels
Height                                   : 1 080 pixels
Display aspect ratio                     : 16:9
Frame rate                               : 25.000 FPS
Color space                              : YUV
Chroma subsampling                       : 4:2:0
Bit depth                                : 8 bits
Scan type                                : MBAFF
Scan type, store method                  : Interleaved fields
Scan order                               : Top Field First
Bits/(Pixel*Frame)                       : 0.274
Stream size                              : 5.99 GiB (93%)
Color range                              : Limited
Color primaries                          : BT.709
Transfer characteristics                 : BT.709
Matrix coefficients                      : BT.709

Audio
ID                                       : 4112 (0x1010)
Menu ID                                  : 1 (0x1)
Format                                   : MPEG Audio
Format version                           : Version 1
Format profile                           : Layer 2
Format settings                          : Dual mono
Codec ID                                 : 3
Duration                                 : 1 h 0 min
Bit rate mode                            : Constant
Bit rate                                 : 384 kb/s
Channel(s)                               : 2 channels
Sampling rate                            : 48.0 kHz
Frame rate                               : 41.667 FPS (1152 SPF)
Compression mode                         : Lossy
Delay relative to video                  : 12 ms
Stream size                              : 165 MiB (2%)
Language                                 : English
Language, more info                      : Clean effects
</pre>
</div></div>
</div>
<div class="bbCodeBlock bbCodeVfcHH HiddenContent">
<div class="attribution type">Hidden Content:</div>
<blockquote>You must reply before you can see the hidden data contained here.</blockquote>
</div>
<div class="messageTextEndMarker">&nbsp;</div>
</blockquote>
</article>]]></description>
                <author><![CDATA[itunesboy]]></author>
                </item>

                
                <item>
                <title><![CDATA[【HD Live Performances】HDTV - A-Ha - Rock In Rio Lisboa 2022 1080i HDTV MP2 H.264]]></title>
                <link><![CDATA[https://sharemania.us/threads/a-ha-rock-in-rio-lisboa-2022-1080i-hdtv-mp2-h-264.243658/]]></link>
                <description><![CDATA[<article>
<blockquote class="messageText SelectQuoteContainer ugc baseHtml">
Thank you!
<div class="messageTextEndMarker">&nbsp;</div>
</blockquote>
</article>]]></description>
                <author><![CDATA[itunesboy]]></author>
                </item>

                
                <item>
                <title><![CDATA[【HD Live Performances】FEED - Maroon 5 - Rock In Rio Lisboa 2016 1080i HDTV FEED MP2 H.264]]></title>
                <link><![CDATA[https://sharemania.us/threads/maroon-5-rock-in-rio-lisboa-2016-1080i-hdtv-feed-mp2-h-264.243654/]]></link>
                <description><![CDATA[<article>
<blockquote class="messageText SelectQuoteContainer ugc baseHtml">
Thanks!
<div class="messageTextEndMarker">&nbsp;</div>
</blockquote>
</article>]]></description>
                <author><![CDATA[itunesboy]]></author>
                </item>

                
                <item>
                <title><![CDATA[【HD Live Performances】HDTV - Queen &amp; Adam Lambert - Rock In Rio Lisboa 2016 1080i HDTV MP2 H.264]]></title>
                <link><![CDATA[https://sharemania.us/threads/queen-adam-lambert-rock-in-rio-lisboa-2016-1080i-hdtv-mp2-h-264.243655/]]></link>
                <description><![CDATA[<article>
<blockquote class="messageText SelectQuoteContainer ugc baseHtml">
<img src="https://i.ibb.co/zHL3PZh/Rock-In-Rio-Lisboa-2022-A-Ha-1080i-HDTV-MP2-H-264-ilya2129-ts.png" class="bbCodeImage LbImage" alt="[​IMG]" data-url="https://i.ibb.co/zHL3PZh/Rock-In-Rio-Lisboa-2022-A-Ha-1080i-HDTV-MP2-H-264-ilya2129-ts.png" style=""><br>
<div class="ToggleTriggerAnchor bbCodeSpoilerContainer">
<button type="button" class="button bbCodeSpoilerButton ToggleTrigger Tooltip JsOnly" data-target="> .SpoilerTarget"><span>Spoiler: <span class="SpoilerTitle">MediaInfo</span></span></button>
<div class="SpoilerTarget bbCodeSpoilerText">
<div class="bbCodeBlock bbCodeCode">
<div class="type">Code:</div>
<pre>General
File size                                : 4.80 GiB
Duration                                 : 1 h 16 min
Overall bit rate mode                    : Variable
Overall bit rate                         : 8 987 kb/s
Frame rate                               : 25.000 FPS

Video
ID                                       : 302 (0x12E)
Menu ID                                  : 1 (0x1)
Format                                   : AVC
Format/Info                              : Advanced Video Codec
Format profile                           : High@L4
Format settings                          : CABAC / 4 Ref Frames
Format settings, CABAC                   : Yes
Format settings, Reference frames        : 4 frames
Format settings, GOP                     : M=4, N=28
Codec ID                                 : 27
Duration                                 : 1 h 16 min
Bit rate                                 : 8 349 kb/s
Width                                    : 1 920 pixels
Height                                   : 1 080 pixels
Display aspect ratio                     : 16:9
Active Format Description                : Full frame 16:9 image
Frame rate                               : 25.000 FPS
Standard                                 : Component
Color space                              : YUV
Chroma subsampling                       : 4:2:0
Bit depth                                : 8 bits
Scan type                                : Interlaced
Scan type, store method                  : Separated fields
Scan order                               : Top Field First
Bits/(Pixel*Frame)                       : 0.161
Stream size                              : 4.45 GiB (93%)
Color range                              : Limited
Color primaries                          : BT.709
Transfer characteristics                 : BT.709
Matrix coefficients                      : BT.709

Audio
ID                                       : 303 (0x12F)
Menu ID                                  : 1 (0x1)
Format                                   : MPEG Audio
Format version                           : Version 1
Format profile                           : Layer 2
Codec ID                                 : 3
Duration                                 : 1 h 16 min
Bit rate mode                            : Constant
Bit rate                                 : 192 kb/s
Channel(s)                               : 2 channels
Sampling rate                            : 48.0 kHz
Frame rate                               : 41.667 FPS (1152 SPF)
Compression mode                         : Lossy
Delay relative to video                  : -120 ms
Stream size                              : 105 MiB (2%)
Language                                 : Portuguese
</pre>
</div></div>
</div>
<div class="bbCodeBlock bbCodeVfcHH HiddenContent">
<div class="attribution type">Hidden Content:</div>
<blockquote>You must reply before you can see the hidden data contained here.</blockquote>
</div>
<div class="messageTextEndMarker">&nbsp;</div>
</blockquote>
</article>]]></description>
                <author><![CDATA[itunesboy]]></author>
                </item>

                </channel></rss>